<?xml version="1.0" encoding="utf-8"?>
<!-- Svg Vector Icons : http://www.onlinewebfonts.com/icon -->
<!DOCTYPE svg PUBLIC "-//W3C//DTD SVG 1.1//EN" "http://www.w3.org/Graphics/SVG/1.1/DTD/svg11.dtd">
<svg version="1.1" xmlns="http://www.w3.org/2000/svg" xmlns:xlink="http://www.w3.org/1999/xlink" x="0px" y="0px" viewBox="0 0 1000 1000" enable-background="new 0 0 1000 1000" xml:space="preserve">
<metadata> Svg Vector Icons : http://www.onlinewebfonts.com/icon </metadata>
<g><g transform="translate(0.000000,511.000000) scale(0.100000,-0.100000)"><path d="M3433.2,5005.7c-25.2-4.2-69.3-33.6-96.7-65.1c-63-69.3-710.2-1384.6-710.2-1443.4c0-84,79.8-178.6,193.3-229c60.9-27.3,374-172.3,695.4-325.7c642.9-302.5,699.7-319.4,798.4-220.6c31.5,29.4,60.9,73.5,69.3,96.7c21,65.1-8.4,174.4-60.9,220.6c-25.2,23.1-233.2,130.3-462.2,237.4c-229,107.2-407.6,203.8-399.2,212.2c27.3,25.2,531.6,180.7,808.9,247.9c340.4,81.9,682.8,140.8,1073.6,182.8c441.2,46.2,1250.1,31.5,1664-33.6c159.7-23.1,315.2-37.8,342.5-31.5c142.9,35.7,201.7,243.7,105.1,357.2c-54.6,60.9-117.6,79.8-453.8,126.1c-529.5,75.6-1340.5,73.5-1924.5,0c-491.7-63-1346.8-260.5-1680.8-388.7c-33.6-12.6-63-18.9-65.1-16.8c-4.2,4.2,81.9,191.2,191.2,416c218.5,449.6,226.9,487.4,117.7,590.4C3580.3,4997.3,3508.8,5020.4,3433.2,5005.7z"/><path d="M991.8,2434C422.4,2322.7,147.2,1684,424.5,1123C451.8,1068.3,1080,423.3,2202-698.6l1735.5-1737.5l-399.2,105.1c-1126.2,294.1-1317.3,338.3-1447.6,327.8c-319.4-23.1-626.1-311-670.2-630.3c-39.9-266.8,117.7-584.1,361.4-737.5c199.6-121.9,1237.5-546.3,1853.1-758.5c903.4-308.9,1638.8-474.8,2248.1-504.2c279.4-12.6,487.5-48.3,684.9-115.6c161.8-56.7,243.7-54.6,319.4,10.5c81.9,67.2,100.8,151.3,58.8,250c-25.2,63-54.6,88.2-153.4,130.2c-201.7,90.4-533.6,153.4-911.8,176.5c-392.9,23.1-676.5,69.3-1149.3,189.1c-617.7,157.6-1290,390.8-2042.2,703.8c-691.2,287.9-804.7,350.9-832,462.2c-29.4,115.6,44.1,289.9,151.3,359.3c52.5,35.7,65.1,35.7,226.9,2.1c92.4-18.9,661.8-163.9,1262.7-321.5c600.9-157.6,1117.8-292.1,1151.4-296.3c155.5-29.4,298.4,138.7,243.7,285.8c-12.6,29.4-941.3,977-2065.3,2103.1C1162,973.8,777.5,1368.8,756.5,1436c-105.1,332,233.2,682.8,558.9,579.9c67.2-21,355.1-298.4,1510.6-1451.8L4254.7-862.5h102.9c81.9,0,111.4,10.5,161.8,60.9c50.4,50.4,60.9,79.8,60.9,159.7v100.8l-323.6,327.8c-287.9,292-325.7,340.4-342.5,424.4c-39.9,191.2,46.2,376.1,226.9,487.4c130.3,79.8,226.9,92.5,350.9,46.2c79.8-29.4,187-124,573.6-506.4c458-453.8,476.9-470.6,556.8-470.6c98.7,0,163.9,39.9,210.1,130.3c60.9,119.8,31.5,168.1-296.3,502.1c-317.2,319.4-367.7,397.1-367.7,546.3c0,216.4,243.7,460.1,462.2,460.1c136.6,0,216.4-60.9,682.8-525.3c289.9-287.8,483.2-464.3,521-472.7c124-31.5,256.3,48.3,279.4,170.2c18.9,102.9-4.2,147.1-172.3,325.7c-180.7,195.4-218.5,285.7-178.6,439.1c46.2,176.5,203.8,325.7,340.4,323.6c155.5-4.2,292.1-124,540-474.8c338.3-479,634.5-1023.2,785.8-1445.5c39.9-109.3,105-289.9,145-399.2C8732-1093.6,9227.9-1995,9345.5-2058c25.2-12.6,77.7-23.1,119.8-23.1c60.9,0,94.5,16.8,151.3,73.5c65.1,65.1,73.5,84,65.1,153.4c-8.4,48.3-60.9,155.5-140.8,275.3c-256.3,388.7-449.6,796.3-640.8,1346.8c-208,596.7-603,1311-1044.2,1893c-208,275.2-481.1,422.3-785.8,426.5c-205.9,0-317.2-44.1-470.6-187c-98.7-92.4-233.2-313.1-233.2-382.4c0-18.9-39.9,6.3-98.8,58.8c-336.2,298.3-842.5,323.6-1199.7,63c-111.4-81.9-243.7-281.5-279.4-422.3c-14.7-58.8-33.6-105.1-42-105.1c-6.3,0-54.6,14.7-105.1,33.6c-136.6,48.3-439.1,44.1-590.4-10.5c-239.5-84-392.9-226.9-493.7-458l-56.7-132.4l-884.5,878.2c-729.1,724.9-903.4,886.7-998,932.9C1418.3,2450.8,1206.1,2476,991.8,2434z"/></g></g>
</svg>